<?xml version="1.0" standalone="no"?><!DOCTYPE svg PUBLIC "-//W3C//DTD SVG 1.1//EN" "http://www.w3.org/Graphics/SVG/1.1/DTD/svg11.dtd"><svg t="1690007792549" class="icon" viewBox="0 0 1024 1024" version="1.1" xmlns="http://www.w3.org/2000/svg" p-id="4910" xmlns:xlink="http://www.w3.org/1999/xlink" width="200" height="200"><path d="M871.673333 770.813333a53.393333 53.393333 0 0 1 0 75.42l-37.713333 37.713334c-27.866667 27.866667-64.52 44.84-108.946667 50.46a264.333333 264.333333 0 0 1-33.213333 2.04c-32.333333 0-67.22-5.46-104.146667-16.32C487.42 890.666667 382 824.226667 290.9 733.1S133.333333 536.586667 103.873333 436.346667c-14.666667-49.94-19.493333-96.153333-14.28-137.333334 5.62-44.426667 22.593333-81.08 50.46-108.946666l37.713334-37.713334a53.393333 53.393333 0 0 1 75.42 0l165.94 165.933334a53.4 53.4 0 0 1 0 75.426666l-37.713334 37.686667c-21.333333 21.333333-0.1 90.413333 60.34 150.846667s129.486667 81.7 150.846667 60.34l37.713333-37.713334a53.4 53.4 0 0 1 75.426667 0zM597.333333 384a42.713333 42.713333 0 0 1 42.666667 42.666667 21.333333 21.333333 0 0 0 42.666667 0 85.426667 85.426667 0 0 0-85.333334-85.333334 21.333333 21.333333 0 0 0 0 42.666667z m314.5-90.2A341.073333 341.073333 0 0 0 597.333333 85.333333a21.333333 21.333333 0 0 0 0 42.666667c164.666667 0 298.666667 134 298.666667 298.666667a21.333333 21.333333 0 0 0 42.666667 0 339.153333 339.153333 0 0 0-26.833334-132.866667zM597.333333 256c94.106667 0 170.666667 76.56 170.666667 170.666667a21.333333 21.333333 0 0 0 42.666667 0 213.333333 213.333333 0 0 0-213.333334-213.333334 21.333333 21.333333 0 0 0 0 42.666667z" fill="#ffffff" p-id="4911"></path></svg>