<?xml version="1.0" standalone="no"?><!DOCTYPE svg PUBLIC "-//W3C//DTD SVG 1.1//EN" "http://www.w3.org/Graphics/SVG/1.1/DTD/svg11.dtd"><svg t="1690068611919" class="icon" viewBox="0 0 1024 1024" version="1.1" xmlns="http://www.w3.org/2000/svg" p-id="2368" xmlns:xlink="http://www.w3.org/1999/xlink" width="200" height="200"><path d="M705.74 604.873333a53.4 53.4 0 0 0-75.426667 0l-37.713333 37.713334c-21.333333 21.333333-90.413333 0.1-150.846667-60.34S360.046667 452.76 381.413333 431.4l0.046667-0.046667 37.666667-37.666666a53.4 53.4 0 0 0 0-75.426667l-165.94-165.933333a53.393333 53.393333 0 0 0-75.42 0l-37.713334 37.713333c-27.866667 27.866667-44.84 64.52-50.46 108.946667-5.213333 41.206667-0.406667 87.42 14.28 137.333333C133.333333 536.586667 199.773333 642 290.9 733.1S487.42 890.666667 587.653333 920.126667c36.926667 10.86 71.813333 16.32 104.146667 16.32a264.333333 264.333333 0 0 0 33.213333-2.04c44.426667-5.62 81.08-22.593333 108.946667-50.46l37.713333-37.713334a53.393333 53.393333 0 0 0 0-75.42z m135.76 211.193334l-37.706667 37.713333c-42.58 42.573333-115.06 51.6-204.1 25.413333-93.506667-27.5-192.453333-90.1-278.62-176.266666s-148.766667-185.113333-176.266666-278.62c-26.186667-89.033333-17.16-161.52 25.413333-204.1l37.713333-37.706667a10.666667 10.666667 0 0 1 15.086667 0l165.933333 165.933333a10.666667 10.666667 0 0 1 0 15.086667l-37.713333 37.706667C329.113333 423.333333 324.666667 458.82 338.766667 501.073333c12.426667 37.273333 38.286667 76.813333 72.813333 111.333334s74.073333 60.386667 111.333333 72.813333c16.213333 5.406667 31.42 8.08 45.26 8.08 22.233333 0 40.946667-6.913333 54.586667-20.553333l37.706667-37.713334a10.666667 10.666667 0 0 1 15.086666 0l165.933334 165.933334a10.666667 10.666667 0 0 1 0.013333 15.1zM576 234.666667a21.333333 21.333333 0 0 1 21.333333-21.333334 213.333333 213.333333 0 0 1 213.333334 213.333334 21.333333 21.333333 0 0 1-42.666667 0c0-94.106667-76.56-170.666667-170.666667-170.666667a21.333333 21.333333 0 0 1-21.333333-21.333333z m0 128a21.333333 21.333333 0 0 1 21.333333-21.333334 85.426667 85.426667 0 0 1 85.333334 85.333334 21.333333 21.333333 0 0 1-42.666667 0 42.713333 42.713333 0 0 0-42.666667-42.666667 21.333333 21.333333 0 0 1-21.333333-21.333333z m362.666667 64a21.333333 21.333333 0 0 1-42.666667 0c0-164.666667-134-298.666667-298.666667-298.666667a21.333333 21.333333 0 0 1 0-42.666667 341.073333 341.073333 0 0 1 341.333334 341.333334z" fill="#2c2c2c" p-id="2369"></path></svg>