<svg width="16" height="16" viewBox="0 0 16 16" xmlns="http://www.w3.org/2000/svg" xmlns:xlink="http://www.w3.org/1999/xlink"><defs><path d="M8 .25C3.58.25 0 3.719 0 8c0 4.281 3.58 7.75 8 7.75s8-3.469 8-7.75C16 3.719 12.42.25 8 .25zM14.232 5h-2.661c-.29-1.388-.777-2.569-1.394-3.41A6.936 6.936 0 0 1 14.232 5zM10.84 8c0 .716-.052 1.381-.139 2H5.3a14.316 14.316 0 0 1-.139-2c0-.716.052-1.381.139-2h5.4c.087.619.139 1.284.139 2zM8 1.25c.868 0 1.98 1.378 2.52 3.75H5.48C6.02 2.628 7.133 1.25 8 1.25zm-2.177.34C5.21 2.429 4.719 3.61 4.429 5H1.768a6.936 6.936 0 0 1 4.055-3.41zM1.033 8c0-.697.109-1.369.312-2h2.92a14.815 14.815 0 0 0 0 4h-2.92a6.515 6.515 0 0 1-.313-2zm.735 3h2.661c.29 1.387.777 2.569 1.394 3.41A6.936 6.936 0 0 1 1.768 11zM8 14.75c-.868 0-1.98-1.378-2.52-3.75h5.04c-.54 2.372-1.652 3.75-2.52 3.75zm2.177-.34c.613-.838 1.104-2.02 1.394-3.41h2.661a6.936 6.936 0 0 1-4.055 3.41zM11.735 10a14.815 14.815 0 0 0 0-4h2.92a6.52 6.52 0 0 1 .313 2 6.52 6.52 0 0 1-.313 2h-2.92z" id="a"/></defs><g fill="none" fill-rule="evenodd"><mask id="b" fill="#fff"><use xlink:href="#a"/></mask><g mask="url(#b)" fill="#9FA3A6"><path d="M0 0h16v16H0z"/></g></g></svg>