<?xml version="1.0" standalone="no"?><!DOCTYPE svg PUBLIC "-//W3C//DTD SVG 1.1//EN" "http://www.w3.org/Graphics/SVG/1.1/DTD/svg11.dtd"><svg t="1687832204212" class="icon" viewBox="0 0 1024 1024" version="1.1" xmlns="http://www.w3.org/2000/svg" p-id="2360" xmlns:xlink="http://www.w3.org/1999/xlink" width="200" height="200"><path d="M511.426 955.66c-29.824 0-343.204-352.504-343.204-542.044 0-189.535 153.644-343.204 343.204-343.204S854.63 224.058 854.63 413.616c0 189.56-314.905 542.043-343.204 542.043z m0-840.962c-165.09 0-298.918 133.847-298.918 298.918 0 165.114 290.55 497.762 298.918 497.762 3.853 0 298.923-332.648 298.923-497.762 0-165.071-133.828-298.918-298.923-298.918z m0 420.701c-67.244 0-121.783-54.534-121.783-121.783 0-67.243 54.54-121.783 121.783-121.783 67.249 0 121.783 54.54 121.783 121.783 0 67.249-54.534 121.783-121.783 121.783z m0-199.28c-42.8 0-77.497 34.717-77.497 77.497 0 42.823 34.697 77.498 77.497 77.498 42.803 0 77.497-34.675 77.497-77.498 0-42.78-34.694-77.497-77.497-77.497z m0 0" p-id="2361"></path></svg>