<?xml version="1.0" standalone="no"?><!DOCTYPE svg PUBLIC "-//W3C//DTD SVG 1.1//EN" "http://www.w3.org/Graphics/SVG/1.1/DTD/svg11.dtd"><svg t="1687679147910" class="icon" viewBox="0 0 1024 1024" version="1.1" xmlns="http://www.w3.org/2000/svg" p-id="2324" xmlns:xlink="http://www.w3.org/1999/xlink" width="200" height="200"><path d="M680.728354 651.326209c121.274064-137.208988 116.320239-346.908988-14.939247-478.166427-136.444579-136.433322-357.662913-136.433322-494.094188 0-136.443555 136.442532-136.443555 357.661889 0 494.105445 131.241067 131.253346 340.927763 136.204102 478.149031 14.942317l265.63187 265.63187 30.889521-30.877241L680.728354 651.326209zM649.273968 622.002346l-28.658713 28.668946c-120.345925 105.622596-303.678394 101.031021-418.524049-13.812587-119.651101-119.651101-119.651101-313.648466 0-433.299567C321.742307 83.909062 515.740696 83.909062 635.39282 203.569372 750.211868 318.380234 754.826979 501.656421 649.273968 622.002346z" fill="#5D5D5D" p-id="2325"></path></svg>