<?xml version="1.0" standalone="no"?><!DOCTYPE svg PUBLIC "-//W3C//DTD SVG 1.1//EN" "http://www.w3.org/Graphics/SVG/1.1/DTD/svg11.dtd"><svg t="1687832463555" class="icon" viewBox="0 0 1024 1024" version="1.1" xmlns="http://www.w3.org/2000/svg" p-id="3357" xmlns:xlink="http://www.w3.org/1999/xlink" width="200" height="200"><path d="M512 64c-256 0-460.8 208-460.8 460.8s208 460.8 460.8 460.8 460.8-208 460.8-460.8S768 64 512 64zM512 940.8c-227.2 0-412.8-185.6-412.8-412.8s185.6-412.8 412.8-412.8 412.8 185.6 412.8 412.8S742.4 940.8 512 940.8z" p-id="3358"></path><path d="M809.6 544l-278.4 0 0-281.6c0-12.8-9.6-22.4-22.4-22.4-12.8 0-22.4 9.6-22.4 22.4l0 307.2c0 12.8 9.6 22.4 22.4 22.4 0 0 3.2 0 3.2 0l297.6 0c12.8 0 22.4-9.6 22.4-22.4C832 553.6 822.4 544 809.6 544z" p-id="3359"></path></svg>