<?xml version="1.0" standalone="no"?><!DOCTYPE svg PUBLIC "-//W3C//DTD SVG 1.1//EN" "http://www.w3.org/Graphics/SVG/1.1/DTD/svg11.dtd"><svg t="1689761865806" class="icon" viewBox="0 0 1024 1024" version="1.1" xmlns="http://www.w3.org/2000/svg" p-id="2413" xmlns:xlink="http://www.w3.org/1999/xlink" width="128" height="128"><path d="M116.363636 837.818182h279.272728v93.090909H23.272727V93.090909h372.363637v93.090909H116.363636v651.636364z m512 0h93.090909v93.090909h-93.090909v-93.090909z m139.636364 0h93.090909v93.090909h-93.090909v-93.090909z m139.636364 93.090909v-93.090909h93.090909v93.090909h-93.090909z m0-325.818182v-93.090909h93.090909v93.090909h-93.090909z m0 139.636364v-93.090909h93.090909v93.090909h-93.090909z m0-279.272728v-93.090909h93.090909v93.090909h-93.090909z m0-139.636363v-93.090909h93.090909v93.090909h-93.090909z m0-139.636364V93.090909h93.090909v93.090909h-93.090909z m-46.545455 0h-93.090909V93.090909h93.090909v93.090909z m-139.636364 0h-93.090909V93.090909h93.090909v93.090909zM488.727273 0h93.090909v1024h-93.090909V0z" fill="#515151" p-id="2414"></path></svg>