<?xml version="1.0" standalone="no"?><!DOCTYPE svg PUBLIC "-//W3C//DTD SVG 1.1//EN" "http://www.w3.org/Graphics/SVG/1.1/DTD/svg11.dtd"><svg t="1689910057210" class="icon" viewBox="0 0 1024 1024" version="1.1" xmlns="http://www.w3.org/2000/svg" p-id="2605" xmlns:xlink="http://www.w3.org/1999/xlink" width="128" height="128"><path d="M938.30656 160H85.76256A86.4 86.4 0 0 0 0.00256 246.976v530.112c0 48 38.4 86.912 85.696 86.912H938.24256c47.424 0 85.696-38.848 85.696-86.912V247.04c0-48-38.272-86.976-85.696-86.976z m-20.48 62.272L577.79456 528c-29.632 26.816-51.648 40.128-65.792 40.128-14.144 0-36.16-13.312-65.792-40.128L106.17856 222.272H917.76256zM63.74656 757.76V278.72l265.536 236.16-265.6 242.88z m44.608 43.968l266.56-240 43.712 38.848c25.344 22.464 56.64 34.048 93.376 34.048 36.928 0 68.032-11.52 93.44-34.048l43.712-38.848 266.56 240H108.35456z m851.968-43.968l-265.6-242.816 265.6-236.16v478.976z" fill="#ffffff" p-id="2606"></path></svg>
