<?xml version="1.0" standalone="no"?><!DOCTYPE svg PUBLIC "-//W3C//DTD SVG 1.1//EN" "http://www.w3.org/Graphics/SVG/1.1/DTD/svg11.dtd"><svg t="1688029430056" class="icon" viewBox="0 0 1024 1024" version="1.1" xmlns="http://www.w3.org/2000/svg" p-id="21009" xmlns:xlink="http://www.w3.org/1999/xlink" width="128" height="128"><path d="M510.86222222 1020.58666667c281.71377778 0 510.86222222-229.14844445 510.86222223-510.86222222S792.576-1.13777778 510.86222222-1.13777778 0 228.01066667 0 509.72444445s229.14844445 510.86222222 510.86222222 510.86222222z m0-950.72711112c242.57422222 0 439.86488889 197.29066667 439.86488889 439.8648889S753.43644445 949.58933333 510.86222222 949.58933333c-242.57422222 0-439.86488889-197.29066667-439.86488889-439.86488888S268.288 69.85955555 510.86222222 69.85955555zM307.65511111 532.48c-13.88088889-13.88088889-13.88088889-36.29511111 0-50.176l260.89244444-260.89244445c13.88088889-13.88088889 36.29511111-13.88088889 50.176 0 13.88088889 13.88088889 13.88088889 36.29511111 0 50.176L382.976 507.33511111l235.86133333 235.86133334c13.88088889 13.88088889 13.88088889 36.29511111 0 50.176-6.94044445 6.94044445-16.04266667 10.35377778-25.03111111 10.35377777-9.10222222 0-18.20444445-3.41333333-25.03111111-10.35377777L307.65511111 532.48z" fill="#fff" p-id="21010"></path></svg>
