<?xml version="1.0" standalone="no"?><!DOCTYPE svg PUBLIC "-//W3C//DTD SVG 1.1//EN" "http://www.w3.org/Graphics/SVG/1.1/DTD/svg11.dtd"><svg t="1690463344366" class="icon" viewBox="0 0 1024 1024" version="1.1" xmlns="http://www.w3.org/2000/svg" p-id="7575" xmlns:xlink="http://www.w3.org/1999/xlink" width="200" height="200"><path d="M421.17 499.22H105.53c-18.55 0-33.57-15.03-33.57-33.57V150.02c0-18.55 15.03-33.57 33.57-33.57h315.64c18.55 0 33.57 15.03 33.57 33.57v315.64c0 18.54-15.02 33.56-33.57 33.56zM139.1 432.08h248.5v-248.5H139.1v248.5zM727.74 513.89c-8.59 0-17.18-3.28-23.74-9.84L512.63 312.68c-13.11-13.1-13.11-34.37 0-47.47L704 73.84c13.11-13.11 34.36-13.11 47.47 0l191.37 191.37c13.11 13.1 13.11 34.37 0 47.47L751.47 504.06c-6.55 6.55-15.14 9.83-23.73 9.83z m-143.9-224.94l143.9 143.9 143.9-143.9-143.9-143.9-143.9 143.9zM879.21 960H563.58c-18.55 0-33.57-15.03-33.57-33.57V610.78c0-18.55 15.03-33.57 33.57-33.57h315.64c18.55 0 33.57 15.03 33.57 33.57v315.65c-0.01 18.54-15.03 33.57-33.58 33.57z m-282.06-67.14h248.5V644.35h-248.5v248.51zM420.54 960H104.89c-18.55 0-33.57-15.03-33.57-33.57V610.78c0-18.55 15.03-33.57 33.57-33.57h315.65c18.55 0 33.57 15.03 33.57 33.57v315.65c0 18.54-15.03 33.57-33.57 33.57z m-282.08-67.14h248.51V644.35H138.46v248.51z" fill="#2c2c2c" p-id="7576"></path></svg>