<?xml version="1.0" standalone="no"?><!DOCTYPE svg PUBLIC "-//W3C//DTD SVG 1.1//EN" "http://www.w3.org/Graphics/SVG/1.1/DTD/svg11.dtd"><svg t="1689816189846" class="icon" viewBox="0 0 1024 1024" version="1.1" xmlns="http://www.w3.org/2000/svg" p-id="5691" xmlns:xlink="http://www.w3.org/1999/xlink" width="128" height="128"><path d="M445.343396 292.438943c-3.767547-3.767547-9.892226-3.767547-13.659774 0l-13.659774 13.659774c-3.767547 3.767547-3.767547 9.892226 0 13.659774l197.187623 197.187623L409.484075 722.69283c-3.728906 3.748226-3.728906 9.795623 0 13.543849l13.543849 13.543849c3.728906 3.748226 9.795623 3.748226 13.543849 0l209.011925-208.992604c1.719547-0.386415 3.381132-1.081962 4.714264-2.415094l13.659774-13.659774c3.767547-3.767547 3.767547-9.892226 0-13.659774L445.343396 292.438943zM512 0C229.240755 0 0 229.221434 0 512 0 794.759245 229.240755 1024 512 1024 794.778566 1024 1024 794.759245 1024 512 1024 229.221434 794.778566 0 512 0zM512 985.358491C250.570868 985.358491 38.641509 773.429132 38.641509 512 38.641509 250.570868 250.570868 38.641509 512 38.641509 773.429132 38.641509 985.358491 250.570868 985.358491 512 985.358491 773.429132 773.429132 985.358491 512 985.358491z" fill="#2c2c2c" p-id="5692"></path></svg>