<?xml version="1.0" standalone="no"?><!DOCTYPE svg PUBLIC "-//W3C//DTD SVG 1.1//EN" "http://www.w3.org/Graphics/SVG/1.1/DTD/svg11.dtd"><svg t="1690708245746" class="icon" viewBox="0 0 1024 1024" version="1.1" xmlns="http://www.w3.org/2000/svg" p-id="3799" xmlns:xlink="http://www.w3.org/1999/xlink" width="200" height="200"><path d="M447.5 773C627.269 773 773 627.269 773 447.5S627.269 122 447.5 122 122 267.731 122 447.5 267.731 773 447.5 773z m323.905-65.235l205.62 205.62c17.573 17.573 17.573 46.066 0 63.64-17.574 17.573-46.067 17.573-63.64 0l-205.62-205.62C636.543 828.707 546.026 863 447.5 863 218.026 863 32 676.974 32 447.5S218.026 32 447.5 32 863 218.026 863 447.5c0 98.526-34.293 189.043-91.595 260.265z" p-id="3800" fill="#2c2c2c"></path></svg>