<?xml version="1.0" standalone="no"?><!DOCTYPE svg PUBLIC "-//W3C//DTD SVG 1.1//EN" "http://www.w3.org/Graphics/SVG/1.1/DTD/svg11.dtd"><svg t="1690634889550" class="icon" viewBox="0 0 1024 1024" version="1.1" xmlns="http://www.w3.org/2000/svg" p-id="12549" xmlns:xlink="http://www.w3.org/1999/xlink" width="200" height="200"><path d="M851.456 814.884571l0-370.322286-77.165714 0q11.410286 35.986286 11.410286 74.825143 0 71.972571-36.571429 132.827429t-99.401143 96.256-137.142857 35.401143q-112.566857 0-192.585143-77.458286t-80.018286-187.172571q0-38.838857 11.410286-74.825143l-80.603429 0 0 370.322286q0 14.848 10.020571 24.868571t24.868571 10.020571l610.889143 0q14.262857 0 24.576-10.020571t10.313143-24.868571zM689.152 510.317714q0-70.875429-51.712-120.832t-124.854857-50.029714q-72.557714 0-124.269714 50.029714t-51.712 120.832 51.712 120.832 124.269714 50.029714q73.142857 0 124.854857-50.029714t51.712-120.832zM851.456 304.566857l0-94.281143q0-16.018286-11.410286-27.721143t-28.013714-11.702857l-99.401143 0q-16.603429 0-28.013714 11.702857t-11.410286 27.721143l0 94.281143q0 16.603429 11.410286 28.013714t28.013714 11.410286l99.401143 0q16.603429 0 28.013714-11.410286t11.410286-28.013714zM950.857143 185.709714l0 652.580571q0 46.299429-33.133714 79.433143t-79.433143 33.133714l-652.580571 0q-46.299429 0-79.433143-33.133714t-33.133714-79.433143l0-652.580571q0-46.299429 33.133714-79.433143t79.433143-33.133714l652.580571 0q46.299429 0 79.433143 33.133714t33.133714 79.433143z" fill="#ffffff" p-id="12550"></path></svg>