<?xml version="1.0" standalone="no"?><!DOCTYPE svg PUBLIC "-//W3C//DTD SVG 1.1//EN" "http://www.w3.org/Graphics/SVG/1.1/DTD/svg11.dtd"><svg t="1690634724082" class="icon" viewBox="0 0 1024 1024" version="1.1" xmlns="http://www.w3.org/2000/svg" p-id="8881" xmlns:xlink="http://www.w3.org/1999/xlink" width="200" height="200"><path d="M272.571429 357.142857v566.285714H84V357.142857h188.571429z m12-174.857143q0.571429 41.714286-28.857143 69.714286T178.285714 280h-1.142857q-46.857143 0-75.428571-28t-28.571429-69.714286q0-42.285714 29.428572-70T179.428571 84.571429t76 27.714285T284.571429 182.285714z m666.285714 416.571429v324.571428h-188v-302.857142q0-60-23.142857-94T667.428571 492.571429q-36 0-60.285714 19.714285T570.857143 561.142857q-6.285714 17.142857-6.285714 46.285714v316H376.571429q1.142857-228 1.142857-369.714285t-0.571429-169.142857l-0.571428-27.428572h188v82.285714h-1.142858q11.428571-18.285714 23.428572-32t32.285714-29.714285 49.714286-24.857143T734.285714 344q97.714286 0 157.142857 64.857143t59.428572 190z" p-id="8882" fill="#ffffff"></path></svg>