<?xml version="1.0" standalone="no"?><!DOCTYPE svg PUBLIC "-//W3C//DTD SVG 1.1//EN" "http://www.w3.org/Graphics/SVG/1.1/DTD/svg11.dtd"><svg t="1690634848648" class="icon" viewBox="0 0 1024 1024" version="1.1" xmlns="http://www.w3.org/2000/svg" p-id="11525" xmlns:xlink="http://www.w3.org/1999/xlink" width="200" height="200"><path d="M680.122221 24.546356c-107.004322-39.422645-240.503733-35.19879-378.802979 40.894594-364.339476 283.190265-87.101006 524.909956-73.277481 532.781686 69.309617 17.791388 57.342029-85.117074 57.342029-85.117074S158.732144 354.711007 330.950224 168.477409c336.820422-186.233598 471.471793 57.342029 425.90536 249.527422-75.325411 338.676358-285.238195 201.977057-269.366741 154.490689C483.584977 588.302977 544.958867 334.807691 539.007072 315.032371c7.935727-132.731437-249.527422-138.683233-168.44221 152.570755-11.839593 47.486368-81.14921 342.580224-81.14921 342.580224s-25.791113 116.923981-2.04793 201.977057C293.319517 1029.951795 307.20704 1016.000275 307.20704 1016.000275s93.116799-65.14976 142.651096-342.516226c5.887798 65.341754 358.451678 188.153532 451.568477-247.543491C939.249313 247.514692 848.756424 86.68822 680.122221 24.546356" fill="#ffffff" p-id="11526"></path></svg>