<?xml version="1.0" standalone="no"?><!DOCTYPE svg PUBLIC "-//W3C//DTD SVG 1.1//EN" "http://www.w3.org/Graphics/SVG/1.1/DTD/svg11.dtd"><svg t="1690634504454" class="icon" viewBox="0 0 1024 1024" version="1.1" xmlns="http://www.w3.org/2000/svg" p-id="4937" xmlns:xlink="http://www.w3.org/1999/xlink" width="200" height="200"><path d="M500.013882 386.808305c26.321275 0 46.318217-9.697312 60.593141-29.152167 10.901947-14.274925 15.961414-37.16299 15.961414-67.459561v-99.984707c0-30.296571-5.059467-52.582319-15.961414-66.857244-14.335157-19.334392-34.332098-29.091936-60.593141-29.091936-25.779189 0-45.776131 9.697312-59.930593 29.091936-10.901947 14.335157-16.021646 36.620905-16.021646 66.917476v99.984706c0 30.296571 5.119699 52.582319 16.021646 67.459562 14.154462 19.394624 34.151403 29.091936 59.930593 29.091935z m-24.574555-206.835833c0-26.261043 8.010823-39.391565 24.574555-39.391565 17.166049 0 24.574554 13.130522 24.574554 39.391565V299.95412c0 26.321275-7.408505 39.993883-24.574554 39.993883-16.563732 0-24.574554-13.732839-24.574555-39.993883V179.972472z m147.989412 185.694489c-2.891124-8.61314-4.517381-22.285748-4.517381-42.824775V97.6959h51.980001v209.666726c0 12.04635 0 18.852538 0.602318 20.057173 1.144403 8.010823 5.119699 12.528204 11.986118 12.528204 10.239398 0 21.081113-8.010823 32.525146-24.574554V97.6959h51.980001v285.13711h-51.980001v-31.440974c-20.539027 23.972237-39.933651 35.41627-58.906653 35.416269-16.563732 0-28.54985-6.806188-33.669549-21.141344z m197.740839 345.730251v26.261043h-51.437915v-26.261043c0-25.718958 8.61314-38.909711 25.718958-38.909711 17.105817 0.060232 25.718958 13.190753 25.718957 38.909711zM262.27916 106.851126A10712.819246 10712.819246 0 0 1 225.11617 0h60.653373l40.535968 150.278219L365.154991 0h58.304335L354.313276 227.977178v154.855832h-57.0997V227.977178c-5.179931-28.007764-16.623963-68.001647-34.934416-121.126052z m658.272808 422.284807A107.453444 107.453444 0 0 0 829.120169 445.714958c-105.164637-11.444033-211.473678-11.444033-317.180401-11.444033s-212.015764 0-316.578083 11.444033c-44.451032 5.119699-81.071937 38.247162-91.913653 83.420975-14.274925 63.96612-14.877243 133.714487-14.877242 199.969414 0 65.71284 0 135.943062 14.877242 199.969413 10.299629 45.173813 47.46262 78.301276 91.431799 82.87889C299.984236 1023.939768 406.293277 1023.939768 512 1023.939768s212.015764 0 317.180401-11.986118c43.908947-4.577613 80.529851-37.705076 91.431798-82.87889 14.274925-63.96612 14.877243-134.256573 14.877243-199.969413-0.060232-66.254926-0.060232-136.003294-14.937474-199.969414z m-590.271161 57.702018H269.205811v325.130992H212.04588V586.837951h-60.051056v-53.726722h178.285983v53.726722z m154.313746 325.130992H433.698724v-30.838657c-20.599259 23.430151-39.993883 34.874184-58.304335 34.874184-16.5035 0-28.54985-6.86642-33.127464-21.141344-2.891124-8.552909-4.577613-21.743662-4.577613-41.680372v-223.399565h50.89583v207.980237c0 12.04635 0 18.310452 0.542086 20.057173 1.204635 7.950591 5.179931 11.986118 11.986118 11.986118 10.359861 0 21.201576-7.950591 32.585378-23.972237v-215.991059h50.895829v282.125522z m194.307629-84.565379c0 26.321275-1.204635 45.113582-5.17993 57.099701-6.264102 20.599259-20.599259 31.440974-40.596201 31.440974-18.250221 0-36.018587-10.299629-53.184636-31.440974v27.465678h-50.775366v-378.857714h50.775366v124.017175c16.563732-20.599259 34.332098-30.838657 53.184636-30.838656 19.996941 0 34.332098 10.841715 40.596201 31.983059 3.975296 11.444033 5.179931 30.236339 5.17993 56.557615v112.573142z m193.102994-46.860302h-102.273513v49.691195c0 26.321275 8.61314 39.391565 26.321275 39.391565 12.588436 0 19.996941-6.806188 22.888065-20.539027 0.542086-2.830892 1.144403-14.274925 1.144404-34.874184h51.980001v7.468737c0 16.563732 0 28.007764-1.144403 33.127463-1.204635 11.383801-5.782248 21.68343-11.986119 30.838657-13.793071 19.996941-34.874184 30.296571-61.677313 30.296571-26.863361 0-46.920534-9.697312-61.737545-29.152168-10.841715-13.732839-16.563732-36.018587-16.563731-66.315158v-98.840303c0-30.296571 5.179931-51.980001 16.021645-66.315158 14.877243-19.454856 34.874184-29.152168 61.19546-29.152168 25.779189 0 45.715899 9.697312 60.532909 29.152168 10.359861 14.274925 15.47956 35.958355 15.47956 66.315158v58.906652z m-243.998823-69.748368v120.583966c0 25.718958-7.468737 38.247162-22.285748 38.247162-8.61314 0-17.166049-3.975296-25.77919-12.528204v-171.96165c8.61314-8.61314 17.166049-12.588436 25.77919-12.588436 14.817011 0 22.285748 13.130522 22.285748 38.247162z" p-id="4938" fill="#ffffff"></path></svg>